<?xml version="1.0" standalone="yes"?>
<svg xmlns="http://www.w3.org/2000/svg" width="200" height="350">
<path style="fill:#010101; stroke:none;" d="M0 0L0 350L200 350L200 0L0 0z"/>
<path style="fill:#c5c5c5; stroke:none;" d="M27 58L27 349L38 349L38 178L38 130L38.9884 108L59.7292 83L70 73.6034L106 73L106 103L110 103L110 73L122 73L122 62L38 62L38 58L27 58z"/>
<path style="fill:#010101; stroke:none;" d="M38 73L38 96L58 73L38 73z"/>
<path style="fill:#514d49; stroke:none;" d="M105 128C101.577 122.594 90.2389 112.448 104 112L104 113L100 115L103 116C103 110.71 115.115 112.102 119 112C118.927 120.012 114.877 121.878 111 128C123.662 122.415 123.802 105.229 109 103L116 106L116 107L101 107L101 106L106 104C90.652 101.491 94.7933 123.498 105 128z"/>
<path style="fill:#949291; stroke:none;" d="M105 107L111 107C109.05 103.487 106.411 102.797 105 107M103 105L104 106L103 105z"/>
<path style="fill:#c5c5c5; stroke:none;" d="M104 105L102 106L102 107L104 105z"/>
<path style="fill:#949291; stroke:none;" d="M112 105L113 106L112 105z"/>
<path style="fill:#c5c5c5; stroke:none;" d="M111 106L111 107L115 107L111 106z"/>
<path style="fill:#949291; stroke:none;" d="M101 106L102 107L101 106M115 106L116 107L115 106z"/>
<path style="fill:#c5c5c5; stroke:none;" d="M97 111L118 111C114.783 106.039 100.401 106.284 97 111z"/>
<path style="fill:#949291; stroke:none;" d="M117 108L118 109L117 108M118 110L119 111L118 110z"/>
<path style="fill:#c5c5c5; stroke:none;" d="M96 115L104 113C100.625 111.595 98.147 112.023 96 115z"/>
<path style="fill:#949291; stroke:none;" d="M106 112L107 113L106 112z"/>
<path style="fill:#c5c5c5; stroke:none;" d="M103 119L99 119L101 116L97 117C99.8004 124.116 107.846 129.436 114.867 123.566C118.771 120.302 120.705 113.895 115 112L117 119L113 119C113.703 110.15 102.71 111.031 103 119z"/>
<path style="fill:#949291; stroke:none;" d="M111 112L112 113L111 112M114 112L113 116L113 117L116 116L114 112M118 112L119 113L118 112M96 113L97 114L96 113M104 113L105 114L104 113M99 114L99 116L101 116L99 114M102 114L103 115L102 114M96 115L98 117L98 115L96 115z"/>
<path style="fill:#514d49; stroke:none;" d="M98 115L99 116L98 115M113.667 115.333L114.333 115.667L113.667 115.333z"/>
<path style="fill:#949291; stroke:none;" d="M101.667 116.333L102.333 116.667L101.667 116.333z"/>
<path style="fill:#e6b686; stroke:none;" d="M99 118L99 119L103 119L99 118M113 118L113 119L117 119L113 118z"/>
<path style="fill:#949291; stroke:none;" d="M97.3333 118.667L97.6667 119.333L97.3333 118.667M118.333 118.667L118.667 119.333L118.333 118.667M98 121L99 122L98 121M106 121L106 122L110 122L106 121M117 121L118 122L117 121M99 122L100 123L99 122M104 122L106 124L104 122z"/>
<path style="fill:#514d49; stroke:none;" d="M105.667 122.333L106.333 122.667L105.667 122.333M109.667 122.333L110.333 122.667L109.667 122.333z"/>
<path style="fill:#949291; stroke:none;" d="M111 122L112 123L111 122M116 122L117 123L116 122M100 123L101 124L100 123M115 123L116 124L115 123M101 124L102 125L101 124M114 124L115 125L114 124M103 125L104 126L103 125M112 125L113 126L112 125M105 128L111 128C109.053 125.769 106.947 125.769 105 128z"/>
<path style="fill:#514d49; stroke:none;" d="M107.667 127.333L108.333 127.667L107.667 127.333z"/>
<path style="fill:#c5c5c5; stroke:none;" d="M103.04 129.028C97.4455 131.969 95.3806 139.401 93.7207 145C89.1746 160.333 89.1027 180.603 93.4282 196C95.5356 203.501 101.117 219.529 111.985 213.972C117.8 210.999 120.182 203.792 121.975 198C126.808 182.384 126.995 161.745 122.572 146C120.238 137.692 114.595 122.953 103.04 129.028z"/>
</svg>
