<?xml version="1.0" standalone="yes"?>
<svg xmlns="http://www.w3.org/2000/svg" width="200" height="350">
<path style="fill:#010101; stroke:none;" d="M0 0L0 350L200 350L200 0L0 0z"/>
<path style="fill:#c5c5c5; stroke:none;" d="M27 58L27 349L38 349L38 178L38 130L38.9884 108L59.7292 83L70 73.6034L106 73L106 103L110 103L110 73L122 73L122 62L38 62L38 58L27 58z"/>
<path style="fill:#010101; stroke:none;" d="M38 73L38 96L58 73L38 73z"/>
<path style="fill:#54524e; stroke:none;" d="M106 128L106 127C99.795 123.045 91.2064 112.417 104 112L104 113L100 115L103 116C103 110.71 115.115 112.102 119 112C118.939 118.699 117.118 122.797 111 126L111 127C125.424 124.081 122.285 105 109 103L116 106L116 107L101 107L101 106L106 104C90.9495 101.54 93.9754 124.426 106 128z"/>
<path style="fill:#949391; stroke:none;" d="M105 107L111 107C109.05 103.487 106.411 102.797 105 107M103 105L104 106L103 105z"/>
<path style="fill:#c5c5c5; stroke:none;" d="M104 105L102 106L102 107L104 105M111 106L111 107L115 107L111 106z"/>
<path style="fill:#949391; stroke:none;" d="M101 106L102 107L101 106M115 106L116 107L115 106z"/>
<path style="fill:#c5c5c5; stroke:none;" d="M97 111L118 111C114.783 106.039 100.401 106.284 97 111z"/>
<path style="fill:#949391; stroke:none;" d="M117 108L118 109L117 108M118 110L119 111L118 110z"/>
<path style="fill:#c5c5c5; stroke:none;" d="M96 115L104 113C100.625 111.595 98.147 112.023 96 115z"/>
<path style="fill:#949391; stroke:none;" d="M106 112L107 113L106 112z"/>
<path style="fill:#c5c5c5; stroke:none;" d="M103 119L99 119L101 116L97 117C99.8004 124.116 107.846 129.436 114.867 123.566C118.771 120.302 120.705 113.895 115 112L117 119L113 119C113.703 110.15 102.71 111.031 103 119z"/>
<path style="fill:#949391; stroke:none;" d="M111 112L112 113L111 112M114 112L113 116L113 117L116 116L114 112M118 112L119 113L118 112M96 113L97 114L96 113M104 113L105 114L104 113M99 114L99 116L101 116L99 114M102 114L103 115L102 114M96 115L98 117L98 115L96 115z"/>
<path style="fill:#54524e; stroke:none;" d="M98 115L99 116L98 115M113.667 115.333L114.333 115.667L113.667 115.333z"/>
<path style="fill:#949391; stroke:none;" d="M101.667 116.333L102.333 116.667L101.667 116.333z"/>
<path style="fill:#e6b686; stroke:none;" d="M99 118L99 119L103 119L99 118M113 118L113 119L117 119L113 118z"/>
<path style="fill:#949391; stroke:none;" d="M97.3333 118.667L97.6667 119.333L97.3333 118.667M118.333 118.667L118.667 119.333L118.333 118.667M98 121L99 122L98 121M106 121L106 122L110 122L106 121M117 121L118 122L117 121M99 122L100 123L99 122M104 122L106 124L104 122z"/>
<path style="fill:#54524e; stroke:none;" d="M105.667 122.333L106.333 122.667L105.667 122.333M109.667 122.333L110.333 122.667L109.667 122.333z"/>
<path style="fill:#949391; stroke:none;" d="M111 122L112 123L111 122M116 122L117 123L116 122M100 123L101 124L100 123M115 123L116 124L115 123M101 124L102 125L101 124M114 124L115 125L114 124M103 125L104 126L103 125M112 125L113 126L112 125M105 126L105 127L112 128L105 126z"/>
<path style="fill:#54524e; stroke:none;" d="M107.667 127.333L108.333 127.667L107.667 127.333z"/>
<path style="fill:#c5c5c5; stroke:none;" d="M94 144C89.29 141.493 80.3592 138.189 82 132L82 131C79.0877 129.607 77.8569 129.221 76 132L71 131C70.3363 135.634 70.2309 149.166 76 139L92 149C87.9039 165.627 88.1328 187.242 95.3125 203C104.999 224.258 120.869 211.664 125.572 195C130.518 177.472 130.131 153.401 121.726 137C113.456 120.862 96.7317 128.676 94 144z"/>
<path style="fill:#54524e; stroke:none;" d="M113 155L111 158L108 166L106 165L104 168L102 173L105 173L106 172L105 170L108 169L108 163L109 162L112 163L112 160L115 159L116 156L113 155z"/>
<path style="fill:#949391; stroke:none;" d="M112 156L113 157L112 156z"/>
<path style="fill:#010101; stroke:none;" d="M113 156L114 157L113 156z"/>
<path style="fill:#949391; stroke:none;" d="M99 157L100 158L99 157z"/>
<path style="fill:#54524e; stroke:none;" d="M100 157L99 158L101 161L103 160L105 163L106 160L103 158L100 157z"/>
<path style="fill:#949391; stroke:none;" d="M101 157L102 158L101 157z"/>
<path style="fill:#010101; stroke:none;" d="M112 157L113 158L112 157M114 157L115 158L114 157z"/>
<path style="fill:#949391; stroke:none;" d="M115 157L116 158L115 157z"/>
<path style="fill:#010101; stroke:none;" d="M101 158L102 159L101 158z"/>
<path style="fill:#949391; stroke:none;" d="M99 159L101 161L99 159z"/>
<path style="fill:#010101; stroke:none;" d="M100 159L101 160L100 159M103 159L105 161L103 159z"/>
<path style="fill:#949391; stroke:none;" d="M104 159L105 160L104 159M110 159L111 160L110 159z"/>
<path style="fill:#010101; stroke:none;" d="M111 159L112 160L111 159M113 159L112 161L113 159M102 160L104 162L102 160z"/>
<path style="fill:#949391; stroke:none;" d="M106 160L106 165L107 165L106 160z"/>
<path style="fill:#010101; stroke:none;" d="M110 160L111 161L110 160z"/>
<path style="fill:#949391; stroke:none;" d="M113 160L114 161L113 160M102 161L103 162L102 161z"/>
<path style="fill:#010101; stroke:none;" d="M106 161L107 162L106 161M111 161L112 162L111 161z"/>
<path style="fill:#949391; stroke:none;" d="M103 162L104 163L103 162z"/>
<path style="fill:#010101; stroke:none;" d="M105 162L106 163L105 162M107 162L108 163L107 162M109 162L107 168C109.394 165.972 110.583 164.857 109 162M106 163L107 164L106 163z"/>
<path style="fill:#949391; stroke:none;" d="M109 163L110 164L109 163M111 163L113 165L113 166L112 169L113 169L114 166L114 165L111 163z"/>
<path style="fill:#010101; stroke:none;" d="M107.333 164.667L107.667 165.333L107.333 164.667z"/>
<path style="fill:#54524e; stroke:none;" d="M111 164L110 167L111 164z"/>
<path style="fill:#010101; stroke:none;" d="M112 165L113 166L112 165z"/>
<path style="fill:#949391; stroke:none;" d="M105 166L106 167L105 166z"/>
<path style="fill:#010101; stroke:none;" d="M106 166L107 167L106 166z"/>
<path style="fill:#949391; stroke:none;" d="M109 166L110 167L109 166z"/>
<path style="fill:#010101; stroke:none;" d="M111 166L112 167L111 166M113 166L112 168L113 166z"/>
<path style="fill:#54524e; stroke:none;" d="M114 166L113 169L114 166z"/>
<path style="fill:#949391; stroke:none;" d="M115 166L114 170L118 170L118 169L115 170L115 166z"/>
<path style="fill:#010101; stroke:none;" d="M105 167L106 168L105 167z"/>
<path style="fill:#949391; stroke:none;" d="M108 167L109 168L108 167z"/>
<path style="fill:#010101; stroke:none;" d="M115 167L116 168L115 167M114 168L115 169L114 168M116 168L115 170L117 170L116 168z"/>
<path style="fill:#54524e; stroke:none;" d="M117 168L118 169L117 168z"/>
<path style="fill:#949391; stroke:none;" d="M103 169L104 170L103 169z"/>
<path style="fill:#010101; stroke:none;" d="M104 169L105 170L104 169M106 169L105 171L106 169M103 170L104 171L103 170z"/>
<path style="fill:#949391; stroke:none;" d="M106 170L107 171L106 170z"/>
<path style="fill:#010101; stroke:none;" d="M104 171L105 172L104 171M103 172L104 173L103 172z"/>
<path style="fill:#949391; stroke:none;" d="M103.667 173.333L104.333 173.667L103.667 173.333z"/>
</svg>
