<?xml version="1.0" standalone="yes"?>
<svg xmlns="http://www.w3.org/2000/svg" width="200" height="350">
<path style="fill:#010101; stroke:none;" d="M0 0L0 350L200 350L200 0L0 0z"/>
<path style="fill:#c5c5c5; stroke:none;" d="M27 58L27 349L38 349L38 178L38 130L38.9884 108L59.7292 83L70 73.6034L106 73L106 103L110 103L110 73L122 73L122 62L38 62L38 58L27 58z"/>
<path style="fill:#010101; stroke:none;" d="M38 73L38 96L58 73L38 73z"/>
<path style="fill:#54524e; stroke:none;" d="M105 127L105 126C98.0907 122.383 92.5379 112.373 104 112L104 113L100 115L103 116C103 110.71 115.115 112.102 119 112C118.939 118.699 117.118 122.797 111 126L111 127C125.424 124.081 122.285 105 109 103L116 106L116 107L101 107L101 106L106 104C92.3602 101.77 92.2884 124.428 105 127z"/>
<path style="fill:#949291; stroke:none;" d="M105 107L111 107C109.05 103.487 106.411 102.797 105 107M103 105L104 106L103 105z"/>
<path style="fill:#c5c5c5; stroke:none;" d="M104 105L102 106L102 107L104 105M111 106L111 107L115 107L111 106z"/>
<path style="fill:#949291; stroke:none;" d="M101 106L102 107L101 106M115 106L116 107L115 106z"/>
<path style="fill:#c5c5c5; stroke:none;" d="M97 111L118 111C114.783 106.039 100.401 106.284 97 111z"/>
<path style="fill:#949291; stroke:none;" d="M117 108L118 109L117 108M118 110L119 111L118 110z"/>
<path style="fill:#c5c5c5; stroke:none;" d="M96 115L104 113C100.625 111.595 98.147 112.023 96 115z"/>
<path style="fill:#949291; stroke:none;" d="M106 112L107 113L106 112z"/>
<path style="fill:#c5c5c5; stroke:none;" d="M103 119L99 119L101 116L97 117C99.8004 124.116 107.846 129.436 114.867 123.566C118.771 120.302 120.705 113.895 115 112L117 119L113 119C113.703 110.15 102.71 111.031 103 119z"/>
<path style="fill:#949291; stroke:none;" d="M111 112L112 113L111 112M114 112L113 116L113 117L116 116L114 112M118 112L119 113L118 112M96 113L97 114L96 113M104 113L105 114L104 113M99 114L99 116L101 116L99 114M102 114L103 115L102 114M96 115L98 117L98 115L96 115z"/>
<path style="fill:#54524e; stroke:none;" d="M98 115L99 116L98 115M113.667 115.333L114.333 115.667L113.667 115.333z"/>
<path style="fill:#949291; stroke:none;" d="M101.667 116.333L102.333 116.667L101.667 116.333z"/>
<path style="fill:#e6b686; stroke:none;" d="M99 118L99 119L103 119L99 118M113 118L113 119L117 119L113 118z"/>
<path style="fill:#949291; stroke:none;" d="M97.3333 118.667L97.6667 119.333L97.3333 118.667M118.333 118.667L118.667 119.333L118.333 118.667M98 121L99 122L98 121M106 121L106 122L110 122L106 121M117 121L118 122L117 121M99 122L100 123L99 122M104 122L106 124L104 122z"/>
<path style="fill:#54524e; stroke:none;" d="M105.667 122.333L106.333 122.667L105.667 122.333M109.667 122.333L110.333 122.667L109.667 122.333z"/>
<path style="fill:#949291; stroke:none;" d="M111 122L112 123L111 122M116 122L117 123L116 122M100 123L101 124L100 123M115 123L116 124L115 123M101 124L102 125L101 124M114 124L115 125L114 124M103 125L104 126L103 125M112 125L113 126L112 125M104 127L104 128L112 128L104 127z"/>
<path style="fill:#54524e; stroke:none;" d="M107.667 127.333L108.333 127.667L107.667 127.333z"/>
<path style="fill:#c5c5c5; stroke:none;" d="M93 144C88.29 141.493 79.3592 138.189 81 132L81 131C78.0877 129.607 76.8569 129.221 75 132L70 131C69.3363 135.634 69.2309 149.166 75 139L91 149C87.7044 162.377 87.653 178.551 90.6651 192C91.9332 197.662 95.9076 203.34 96.4244 209C97.1584 217.039 90.1882 225.954 89 234L83.9753 232.002C69.9427 226.604 83.2434 242.785 90.581 238.867C96.0029 235.973 99.6707 218.743 101 213C105.899 215.358 110.101 215.358 115 213C119.132 223.742 133.501 230.91 119 239C122.947 246.063 131.21 237.942 136 235L119.479 210.285L125.55 191L126.999 164L127.067 152.174L138 142L139 142C141.529 144.417 142.791 144.332 146 143C145.108 138.396 146.102 133.106 140 134C138.194 130.751 136.617 130.401 133 131L136 138L124 146C122.642 140.283 120.071 133.029 114.957 129.603C104.191 122.393 94.7112 134.4 93 144z"/>
<path style="fill:#54524e; stroke:none;" d="M112 155L110 158L107 166L105 165L103 168L101 173L104 173L105 172L104 170L107 169L107 163L108 162L111 163L111 160L114 159L115 156L112 155z"/>
<path style="fill:#949291; stroke:none;" d="M111 156L112 157L111 156z"/>
<path style="fill:#010101; stroke:none;" d="M112 156L113 157L112 156z"/>
<path style="fill:#949291; stroke:none;" d="M98 157L99 158L98 157z"/>
<path style="fill:#54524e; stroke:none;" d="M99 157L98 158L100 161L102 160L104 163L105 160L102 158L99 157z"/>
<path style="fill:#949291; stroke:none;" d="M100 157L101 158L100 157z"/>
<path style="fill:#010101; stroke:none;" d="M111 157L112 158L111 157M113 157L114 158L113 157z"/>
<path style="fill:#949291; stroke:none;" d="M114 157L115 158L114 157z"/>
<path style="fill:#010101; stroke:none;" d="M100 158L101 159L100 158z"/>
<path style="fill:#949291; stroke:none;" d="M98 159L100 161L98 159z"/>
<path style="fill:#010101; stroke:none;" d="M99 159L100 160L99 159M102 159L104 161L102 159z"/>
<path style="fill:#949291; stroke:none;" d="M103 159L104 160L103 159M109 159L110 160L109 159z"/>
<path style="fill:#010101; stroke:none;" d="M110 159L111 160L110 159M112 159L111 161L112 159M101 160L103 162L101 160z"/>
<path style="fill:#949291; stroke:none;" d="M105 160L105 165L106 165L105 160z"/>
<path style="fill:#010101; stroke:none;" d="M109 160L110 161L109 160z"/>
<path style="fill:#949291; stroke:none;" d="M112 160L113 161L112 160M101 161L102 162L101 161z"/>
<path style="fill:#010101; stroke:none;" d="M105 161L106 162L105 161M110 161L111 162L110 161z"/>
<path style="fill:#949291; stroke:none;" d="M102 162L103 163L102 162z"/>
<path style="fill:#010101; stroke:none;" d="M104 162L105 163L104 162M106 162L107 163L106 162M108 162L106 168C108.394 165.972 109.583 164.857 108 162M105 163L106 164L105 163z"/>
<path style="fill:#949291; stroke:none;" d="M108 163L109 164L108 163M110 163L112 165L112 166L111 169L112 169L113 166L113 165L110 163z"/>
<path style="fill:#010101; stroke:none;" d="M106.333 164.667L106.667 165.333L106.333 164.667z"/>
<path style="fill:#54524e; stroke:none;" d="M110 164L109 167L110 164z"/>
<path style="fill:#010101; stroke:none;" d="M111 165L112 166L111 165z"/>
<path style="fill:#949291; stroke:none;" d="M104 166L105 167L104 166z"/>
<path style="fill:#010101; stroke:none;" d="M105 166L106 167L105 166z"/>
<path style="fill:#949291; stroke:none;" d="M108 166L109 167L108 166z"/>
<path style="fill:#010101; stroke:none;" d="M110 166L111 167L110 166M112 166L111 168L112 166z"/>
<path style="fill:#54524e; stroke:none;" d="M113 166L112 169L113 166z"/>
<path style="fill:#949291; stroke:none;" d="M114 166L113 170L117 170L117 169L114 170L114 166z"/>
<path style="fill:#010101; stroke:none;" d="M104 167L105 168L104 167z"/>
<path style="fill:#949291; stroke:none;" d="M107 167L108 168L107 167z"/>
<path style="fill:#010101; stroke:none;" d="M114 167L115 168L114 167M113 168L114 169L113 168M115 168L114 170L116 170L115 168z"/>
<path style="fill:#54524e; stroke:none;" d="M116 168L117 169L116 168z"/>
<path style="fill:#949291; stroke:none;" d="M102 169L103 170L102 169z"/>
<path style="fill:#010101; stroke:none;" d="M103 169L104 170L103 169M105 169L104 171L105 169M102 170L103 171L102 170z"/>
<path style="fill:#949291; stroke:none;" d="M105 170L106 171L105 170z"/>
<path style="fill:#010101; stroke:none;" d="M103 171L104 172L103 171M102 172L103 173L102 172z"/>
<path style="fill:#949291; stroke:none;" d="M102.667 173.333L103.333 173.667L102.667 173.333z"/>
</svg>
